<svg width="15" height="28" viewBox="0 0 15 28" fill="none" xmlns="http://www.w3.org/2000/svg">
<path d="M0.815915 14.745H3.85062V27.2383C3.85062 27.485 4.05049 27.6849 4.29715 27.6849H9.4426C9.68927 27.6849 9.88913 27.485 9.88913 27.2383V14.8038H13.3778C13.6046 14.8038 13.7955 14.6336 13.8214 14.4083L14.3512 9.80883C14.3658 9.68229 14.3257 9.55556 14.241 9.46063C14.1563 9.36561 14.035 9.31122 13.9077 9.31122H9.88931V6.42807C9.88931 5.55894 10.3573 5.11822 11.2803 5.11822C11.4119 5.11822 13.9077 5.11822 13.9077 5.11822C14.1544 5.11822 14.3543 4.91826 14.3543 4.67169V0.449834C14.3543 0.203171 14.1544 0.00330432 13.9077 0.00330432H10.2868C10.2613 0.00205404 10.2046 0 10.121 0C9.4927 0 7.30891 0.123331 5.58387 1.7103C3.67254 3.46891 3.93823 5.57457 4.00173 5.93965V9.31113H0.815915C0.569252 9.31113 0.369385 9.511 0.369385 9.75766V14.2983C0.369385 14.545 0.569252 14.745 0.815915 14.745Z" fill="#F53838"/>
</svg>
