<svg width="28" height="28" viewBox="0 0 28 28" fill="none" xmlns="http://www.w3.org/2000/svg">
<path d="M3.90373 0H24.4517C26.4039 0 27.9998 1.59643 27.9998 3.54859V24.0966C27.9998 26.0482 26.4039 27.6436 24.4517 27.6436H3.90373C1.95157 27.6436 0.354004 26.0481 0.354004 24.0966V3.54859C0.354004 1.59643 1.95157 0 3.90373 0ZM20.4936 3.07025C19.8081 3.07025 19.249 3.63153 19.249 4.31663V7.29443C19.249 7.97975 19.8081 8.53979 20.4936 8.53979H23.6178C24.3021 8.53979 24.8624 7.9798 24.8624 7.29443V4.31657C24.8624 3.63153 24.3021 3.07019 23.6178 3.07019C23.6178 3.07025 20.4936 3.07025 20.4936 3.07025ZM24.8743 11.6901H22.4419C22.6726 12.4434 22.7976 13.2378 22.7976 14.0638C22.7976 18.6606 18.9488 22.3889 14.2029 22.3889C9.45826 22.3889 5.60929 18.6606 5.60929 14.0638C5.60929 13.2378 5.73553 12.4434 5.96507 11.6901H3.42727V23.3687C3.42727 23.9735 3.92112 24.4655 4.52538 24.4655H23.7767C24.3815 24.4655 24.8743 23.9735 24.8743 23.3687V11.6901V11.6901ZM14.203 8.38272C11.138 8.38272 8.65168 10.7905 8.65168 13.7633C8.65168 16.7331 11.138 19.1428 14.203 19.1428C17.2696 19.1428 19.756 16.7331 19.756 13.7633C19.756 10.7904 17.2696 8.38272 14.203 8.38272Z" fill="#F53838"/>
</svg>
