<svg width="34" height="28" viewBox="0 0 34 28" fill="none" xmlns="http://www.w3.org/2000/svg">
<path d="M32.613 3.15296C32.0888 3.38547 31.5498 3.5817 30.9991 3.74101C31.6511 3.00366 32.1482 2.13606 32.4517 1.18665C32.5197 0.973842 32.4492 0.740904 32.2743 0.601722C32.0996 0.462432 31.8568 0.445748 31.6645 0.559741C30.4949 1.25339 29.2332 1.75188 27.9101 2.04338C26.5774 0.741119 24.7673 0 22.896 0C18.9461 0 15.7325 3.21345 15.7325 7.16329C15.7325 7.47438 15.7522 7.78374 15.7912 8.0888C10.8897 7.65844 6.33285 5.2493 3.20368 1.41087C3.09216 1.27406 2.92037 1.20032 2.74448 1.21442C2.56848 1.2282 2.41035 1.32745 2.32144 1.47998C1.68678 2.569 1.35126 3.81453 1.35126 5.08181C1.35126 6.80785 1.96751 8.44553 3.0561 9.72518C2.7251 9.61054 2.4039 9.46727 2.09733 9.29709C1.93274 9.20548 1.73188 9.20688 1.56837 9.30064C1.40476 9.3944 1.30217 9.56684 1.29787 9.75532C1.29712 9.78708 1.29712 9.81883 1.29712 9.85102C1.29712 12.4274 2.68377 14.747 4.80379 16.0113C4.62166 15.9931 4.43963 15.9667 4.25879 15.9322C4.07236 15.8965 3.88064 15.9619 3.75492 16.1041C3.62898 16.2462 3.58732 16.4442 3.64534 16.6251C4.43005 19.075 6.4504 20.8771 8.8928 21.4265C6.86708 22.6953 4.5505 23.3598 2.11864 23.3598C1.61122 23.3598 1.10088 23.33 0.601422 23.2709C0.353306 23.2414 0.116062 23.3879 0.0315621 23.6239C-0.0529373 23.8599 0.0366213 24.1231 0.247708 24.2584C3.37182 26.2616 6.98419 27.3203 10.6941 27.3203C17.9873 27.3203 22.5497 23.8811 25.0928 20.996C28.2639 17.3985 30.0827 12.6367 30.0827 7.93175C30.0827 7.73519 30.0797 7.5367 30.0736 7.33885C31.3248 6.39623 32.4019 5.25543 33.2785 3.94424C33.4116 3.7451 33.3972 3.48191 33.2429 3.2986C33.0889 3.11518 32.8322 3.05586 32.613 3.15296Z" fill="#F53838"/>
</svg>
